#N canvas 200 200 797 600 12;
#X obj 165 137 print RAW_OSC;
#X obj 50 275 * 127;
#X obj 50 300 int;
#X text 50 400 ESP32 OSC Receiver;
#X text 50 420 Broadcast mode - zero config!;
#X text 50 470 Notes: /note -> note vel channel;
#X obj 50 112 oscparse;
#X obj 50 147 list trim;
#X obj 50 185 route ctl note;
#X text 50 450 Controls: /ctl -> 0.0-1.0;
#X msg 514 325 disconnect;
#X obj 424 366 netsend -u -b;
#X obj 610 193 oscformat note;
#X msg 610 148 60 \$1 1;
#X obj 610 116 * 127;
#X obj 610 83 tgl 19 0 empty empty empty 0 -10 0 12 #fcfcfc #000000 #000000 0 1;
#X obj 423 402 tgl 19 0 empty empty empty 0 -10 0 12 #fcfcfc #000000 #000000 0 1;
#X msg 424 121 connect \$1 8000;
#X listbox 424 88 20 0 0 0 - - - 0;
#X text 419 52 1° connect to esp32 ip;
#X text 604 53 2° LEDs: /led -> on/off;
#X obj 519 465 notein;
#X obj 636 421 ctlin;
#X floatatom 600 479 5 0 0 0 - - - 0;
#X floatatom 649 480 5 0 0 0 - - - 0;
#X floatatom 444 516 5 0 0 0 - - - 0;
#X floatatom 493 517 5 0 0 0 - - - 0;
#X floatatom 543 517 5 0 0 0 - - - 0;
#X floatatom 698 481 5 0 0 0 - - - 0;
#X obj 165 112 spigot;
#X obj 205 87 tgl 19 0 empty empty empty 0 -10 0 12 #fcfcfc #000000 #000000 0 1;
#X obj 439 469 bng 19 250 50 0 empty empty empty 0 -10 0 12 #fcfcfc #000000 #000000;
#X obj 50 76 t a a;
#X obj 215 42 print netreceive-back;
#X obj 50 20 netreceive -u -b 8000;
#X floatatom 50 332 5 0 0 0 - - - 0;
#X listbox 103 332 20 0 0 0 - - - 0;
#X connect 1 0 2 0;
#X connect 2 0 35 0;
#X connect 6 0 7 0;
#X connect 7 0 8 0;
#X connect 8 0 1 0;
#X connect 8 1 36 0;
#X connect 10 0 11 0;
#X connect 11 0 16 0;
#X connect 12 0 11 0;
#X connect 13 0 12 0;
#X connect 14 0 13 0;
#X connect 15 0 14 0;
#X connect 17 0 11 0;
#X connect 18 0 17 0;
#X connect 21 0 25 0;
#X connect 21 0 31 0;
#X connect 21 1 26 0;
#X connect 21 2 27 0;
#X connect 22 0 23 0;
#X connect 22 1 24 0;
#X connect 22 2 28 0;
#X connect 29 0 0 0;
#X connect 30 0 29 1;
#X connect 32 0 6 0;
#X connect 32 1 29 0;
#X connect 34 0 32 0;
