#N canvas 450 96 959 345 12;
#X obj 49 126 oscparse;
#X listbox 49 187 11 0 0 0 - - - 0;
#X floatatom 228 128 4 0 0 0 - - - 0;
#X obj 49 157 list split, f 26;
#X listbox 138 187 15 0 0 0 - - - 0;
#X text 222 105 split point;
#X obj 62 94 print OSC-packet-2;
#X obj 49 64 netreceive -u -b 9000;
#X obj 476 194 ctlin;
#X floatatom 508 220 5 0 0 0 - - - 0;
#X floatatom 492 244 5 0 0 0 - - - 0;
#X floatatom 476 267 5 0 0 0 - - - 0;
#X obj 580 192 notein;
#X floatatom 611 239 5 0 0 0 - - - 0;
#X floatatom 620 215 5 0 0 0 - - - 0;
#X floatatom 587 262 5 0 0 0 - - - 0;
#X text 206 56 receive OSC via UDP \, binary at port 9000, f 20;
#X text 475 55 RTP-MIDI:;
#X text 477 73 windows: https://www.tobias-erichsen.de/software/rtpmidi.html;
#X text 478 105 macos: https://support.apple.com/fr-ca/guide/audio-midi-setup/ams1012/mac;
#X text 478 153 linux: https://github.com/davidmoreno/rtpmidid;
#X text 44 9 esp32server send and receive OSC and midi paquets through RTP or USB (esp32S3);
#X text 28 271 patko2025;
#X connect 0 0 3 0;
#X connect 0 1 2 0;
#X connect 2 0 3 1;
#X connect 3 0 1 0;
#X connect 3 1 4 0;
#X connect 7 0 0 0;
#X connect 7 0 6 0;
#X connect 8 0 11 0;
#X connect 8 1 10 0;
#X connect 8 2 9 0;
#X connect 12 0 15 0;
#X connect 12 1 13 0;
#X connect 12 2 14 0;
